HIERARCHY
ROOT Hips
{
	OFFSET 0.00000 0.00000 0.00000
	CHANNELS 6 Xposition Yposition Zposition Zrotation Yrotation Xrotation 
	JOINT LHipJoint
	{
		OFFSET 0 0 0
		CHANNELS 3 Zrotation Yrotation Xrotation
		JOINT LeftUpLeg
		{
			OFFSET 1.28858 -1.83292 1.03970
			CHANNELS 3 Zrotation Yrotation Xrotation
			JOINT LeftLeg
			{
				OFFSET 2.47846 -6.80952 0.00000
				CHANNELS 3 Zrotation Yrotation Xrotation
				JOINT LeftFoot
				{
					OFFSET 2.75274 -7.56311 0.00000
					CHANNELS 3 Zrotation Yrotation Xrotation
					JOINT LeftToeBase
					{
						OFFSET 0.12848 -0.35301 1.68223
						CHANNELS 3 Zrotation Yrotation Xrotation
						End Site
						{
							OFFSET 0.00000 -0.00000 0.87311
						}
					}
				}
			}
		}
	}
	JOINT RHipJoint
	{
		OFFSET 0 0 0
		CHANNELS 3 Zrotation Yrotation Xrotation
		JOINT RightUpLeg
		{
			OFFSET -1.31183 -1.83292 1.03970
			CHANNELS 3 Zrotation Yrotation Xrotation
			JOINT RightLeg
			{
				OFFSET -2.44740 -6.72417 0.00000
				CHANNELS 3 Zrotation Yrotation Xrotation
				JOINT RightFoot
				{
					OFFSET -2.67343 -7.34519 0.00000
					CHANNELS 3 Zrotation Yrotation Xrotation
					JOINT RightToeBase
					{
						OFFSET -0.16914 -0.46471 1.77626
						CHANNELS 3 Zrotation Yrotation Xrotation
						End Site
						{
							OFFSET -0.00000 -0.00000 0.92777
						}
					}
				}
			}
		}
	}
	JOINT LowerBack
	{
		OFFSET 0 0 0
		CHANNELS 3 Zrotation Yrotation Xrotation
		JOINT Spine
		{
			OFFSET 0.01249 2.14252 0.03842
			CHANNELS 3 Zrotation Yrotation Xrotation
			JOINT Spine1
			{
				OFFSET -0.02957 2.14199 -0.03751
				CHANNELS 3 Zrotation Yrotation Xrotation
				JOINT Neck
				{
					OFFSET 0 0 0
					CHANNELS 3 Zrotation Yrotation Xrotation
					JOINT Neck1
					{
						OFFSET -0.01678 1.65709 -0.05476
						CHANNELS 3 Zrotation Yrotation Xrotation
						JOINT Head
						{
							OFFSET 0.07912 1.58331 -0.11843
							CHANNELS 3 Zrotation Yrotation Xrotation
							End Site
							{
								OFFSET 0.03298 1.73940 -0.04271
							}
						}
					}
				}
				JOINT LeftShoulder
				{
					OFFSET 0 0 0
					CHANNELS 3 Zrotation Yrotation Xrotation
					JOINT LeftArm
					{
						OFFSET 3.39556 1.16496 0.08673
						CHANNELS 3 Zrotation Yrotation Xrotation
						JOINT LeftForeArm
						{
							OFFSET 5.23910 -0.00000 -0.00000
							CHANNELS 3 Zrotation Yrotation Xrotation
							JOINT LeftHand
							{
								OFFSET 3.31467 -0.00000 0.00000
								CHANNELS 3 Zrotation Yrotation Xrotation
								JOINT LeftFingerBase
								{
									OFFSET 0 0 0
									CHANNELS 3 Zrotation Yrotation Xrotation
									JOINT LeftHandIndex1
									{
										OFFSET 0.96590 -0.00000 0.00000
										CHANNELS 3 Zrotation Yrotation Xrotation
										End Site
										{
											OFFSET 0.77873 -0.00000 0.00000
										}
									}
								}
								JOINT LThumb
								{
									OFFSET 0 0 0
									CHANNELS 3 Zrotation Yrotation Xrotation
									End Site
									{
										OFFSET 0.79062 -0.00000 0.79062
									}
								}
							}
						}
					}
				}
				JOINT RightShoulder
				{
					OFFSET 0 0 0
					CHANNELS 3 Zrotation Yrotation Xrotation
					JOINT RightArm
					{
						OFFSET -3.27193 1.31331 0.33940
						CHANNELS 3 Zrotation Yrotation Xrotation
						JOINT RightForeArm
						{
							OFFSET -5.30252 -0.00000 0.00000
							CHANNELS 3 Zrotation Yrotation Xrotation
							JOINT RightHand
							{
								OFFSET -3.67875 -0.00000 0.00000
								CHANNELS 3 Zrotation Yrotation Xrotation
								JOINT RightFingerBase
								{
									OFFSET 0 0 0
									CHANNELS 3 Zrotation Yrotation Xrotation
									JOINT RightHandIndex1
									{
										OFFSET -0.59481 -0.00000 0.00000
										CHANNELS 3 Zrotation Yrotation Xrotation
										End Site
										{
											OFFSET -0.47955 -0.00000 0.00000
										}
									}
								}
								JOINT RThumb
								{
									OFFSET 0 0 0
									CHANNELS 3 Zrotation Yrotation Xrotation
									End Site
									{
										OFFSET -0.48687 -0.00000 0.48687
									}
								}
							}
						}
					}
				}
			}
		}
	}
}
MOTION
Frames: 6
Frame Time: .0083333
7.8453 17.9062 -32.3054 0 0 0 0 0 0 -21 0 0 0 0 0 0 0 0 0 0 0 0 0 0 21 0 0 0 0 0 0 0 0 0 0 0 0 0 0 0 0 0 0 0 0 0 0 -16 0 0 21 0 0 11 0 0 0 -8 0 0 0 0 0 0 0 0 0 0 0 0 0 0 0 0 0 0 0 0 8 0 0 0 0 0 0 0 0 0 0 0 0 0 0 0 0 0
7.8453 17.9062 -32.3054 -4.3774 -10.8498 0.8167 0.0000 0.0000 0.0000 -5.4908 -4.5095 -8.4159 0.0030 0.3524 0.9684 -0.1917 8.9208 -8.0026 3.9424 12.0833 36.0273 0.0000 0.0000 0.0000 27.5099 -1.1957 7.5184 -0.0556 -1.5222 4.1869 -1.4462 -10.7514 -28.8667 -9.8098 -17.3015 58.8507 5.6899 1.0131 -5.7281 0.0871 0.9295 1.1278 -3.0157 0.6082 4.4829 -1.4919 -2.3548 1.1025 4.8082 -3.3622 5.3394 1.7294 -1.6338 1.5984 0.0000 0.0000 0.0000 -83.7430 0.3194 29.9217 8.9985 -15.1580 -1.1997 -0.0000 0.0000 -4.3996 9.2924 -11.1033 -1.8048 -7.1250 0.0000 -0.0000 -12.4983 18.8729 7.9749 0.0000 0.0000 0.0000 86.5460 -9.3756 22.0723 -15.1588 24.3668 -3.2912 0.0000 0.0000 0.0945 -7.2403 -37.5101 4.4234 7.1250 -0.0000 -0.0000 34.3445 -64.5063 -17.1685
7.8420 17.9036 -32.3063 -4.3906 -11.0181 0.8661 0.0000 0.0000 0.0000 -5.4383 -4.5235 -8.3871 0.0027 0.3335 0.9163 -0.1953 9.0156 -8.1088 3.8407 11.9453 35.5387 0.0000 0.0000 0.0000 27.4945 -1.2151 7.4311 -0.0573 -1.5444 4.2482 -1.4414 -10.6515 -28.7564 -8.5093 -16.4813 54.3770 5.6750 1.0786 -5.7359 0.0938 1.0186 1.0825 -2.9919 0.6500 4.4481 -1.6095 -2.3119 1.2956 5.0334 -3.3057 5.1130 1.8255 -1.6098 1.4984 -0.0000 -0.0000 0.0000 -83.7239 0.4222 29.9480 8.8557 -14.9301 -1.1627 -0.0000 0.0000 -4.3960 8.8661 -11.1007 -1.7203 -7.1250 0.0000 -0.0000 -12.7946 18.8941 8.1675 -0.0000 -0.0000 0.0000 86.5620 -9.3765 21.9242 -15.1298 24.3266 -3.2792 0.0000 0.0000 0.2457 -7.0933 -37.4245 4.3247 7.1250 -0.0000 -0.0000 34.3848 -64.3970 -17.1045
7.8394 17.9018 -32.3040 -4.4274 -11.2533 0.9097 0.0000 0.0000 0.0000 -5.3492 -4.5333 -8.2681 0.0020 0.2855 0.7843 -0.1843 9.0060 -8.4693 3.9241 12.0587 35.9398 0.0000 0.0000 0.0000 27.5378 -1.0911 7.4133 -0.0595 -1.5733 4.3279 -1.4480 -10.5174 -28.6987 -7.0337 -15.3602 49.0015 5.7193 1.1769 -5.7633 0.0923 1.1460 1.0396 -3.0057 0.7130 4.4320 -1.5659 -2.3174 1.3712 5.0439 -3.3090 5.0025 1.8218 -1.6129 1.4494 -0.0000 -0.0000 0.0000 -83.7031 0.5943 29.9227 8.8079 -14.8538 -1.1504 -0.0000 0.0000 -4.3095 8.9178 -10.8455 -1.6912 -7.1250 0.0000 -0.0000 -12.7730 19.1435 8.0801 -0.0000 -0.0000 0.0000 86.5833 -9.4236 21.8106 -15.1098 24.2989 -3.2710 0.0000 0.0000 0.3429 -7.1039 -37.2533 4.3143 7.1250 -0.0000 -0.0000 34.1552 -64.2617 -16.8708
7.8370 17.9000 -32.3017 -4.3629 -11.5388 0.9545 0.0000 0.0000 0.0000 -5.3742 -4.4745 -8.2016 0.0016 0.2589 0.7113 -0.1813 9.0635 -8.7037 3.9544 12.0994 36.0846 0.0000 0.0000 0.0000 27.4351 -1.0547 7.3412 -0.0615 -1.5999 4.4012 -1.4348 -10.3665 -28.4930 -4.9864 -13.3685 40.7640 5.6756 1.2815 -5.8267 0.0526 1.2877 0.9897 -3.0078 0.7815 4.4291 -1.4915 -2.3811 1.5362 4.9935 -3.3881 4.9001 1.7931 -1.6553 1.3883 -0.0000 0.0000 0.0000 -83.6814 0.6672 29.7296 8.7092 -14.6957 -1.1252 -0.0000 0.0000 -4.0845 9.0043 -10.9484 -1.7238 -7.1250 0.0000 -0.0000 -12.7070 19.0384 8.0668 -0.0000 0.0000 0.0000 86.5924 -9.4911 21.7917 -15.0947 24.2778 -3.2648 0.0000 0.0000 0.3336 -7.1479 -37.1180 4.3277 7.1250 -0.0000 -0.0000 33.9389 -64.1642 -16.6754
7.8350 17.8957 -32.3012 -4.3394 -11.7258 1.0733 0.0000 0.0000 0.0000 -5.3500 -4.4739 -8.2651 0.0015 0.2481 0.6817 -0.1770 9.0917 -8.9017 3.9763 12.1288 36.1892 0.0000 0.0000 0.0000 27.3951 -0.9815 7.1971 -0.0634 -1.6252 4.4708 -1.4331 -10.2323 -28.3788 -3.0650 -10.7996 31.6070 5.6510 1.3511 -5.9348 0.0399 1.3783 0.9091 -2.9972 0.8238 4.4143 -1.4672 -2.4043 1.6833 4.9857 -3.4155 4.8183 1.7876 -1.6717 1.3372 -0.0000 -0.0000 0.0000 -83.6833 0.7680 29.5710 8.6221 -14.5561 -1.1032 -0.0000 0.0000 -3.9596 8.8931 -10.9159 -1.6972 -7.1250 0.0000 -0.0000 -12.7862 19.0751 8.1089 -0.0000 -0.0000 0.0000 86.5833 -9.5667 21.7697 -15.0810 24.2588 -3.2591 0.0000 0.0000 0.3529 -7.1563 -37.0381 4.3249 7.1250 -0.0000 -0.0000 33.8300 -64.1017 -16.5671
